<?xml version="1.0" standalone="no"?>
<!DOCTYPE svg PUBLIC "-//W3C//DTD SVG 20010904//EN"
 "http://www.w3.org/TR/2001/REC-SVG-20010904/DTD/svg10.dtd">
<svg version="1.0" xmlns="http://www.w3.org/2000/svg"
 width="180.000000pt" height="180.000000pt" viewBox="0 0 180.000000 180.000000"
 preserveAspectRatio="xMidYMid meet">
<metadata>
Created by potrace 1.14, written by Peter Selinger 2001-2017
</metadata>
<g transform="translate(0.000000,180.000000) scale(0.100000,-0.100000)"
fill="#000000" stroke="none">
<path d="M731 1755 c-182 -40 -320 -114 -446 -240 -159 -158 -242 -348 -252
-576 -19 -413 238 -765 644 -881 112 -32 334 -32 446 0 309 89 531 309 617
614 27 93 36 260 21 358 -57 363 -331 650 -693 724 -93 19 -250 19 -337 1z
m365 -45 c152 -35 284 -111 400 -228 320 -325 317 -848 -7 -1171 -326 -327
-851 -327 -1178 0 -327 328 -327 850 0 1178 210 209 492 288 785 221z"/>
<path d="M465 1450 c-10 -15 0 -24 76 -69 61 -35 64 -39 61 -71 -4 -43 -29
-87 -63 -112 l-25 -19 -71 40 c-38 23 -73 41 -78 41 -13 0 6 -53 33 -91 34
-48 101 -85 172 -94 59 -8 117 -44 195 -124 l39 -41 58 57 57 57 -73 77 c-95
99 -103 111 -115 189 -13 78 -33 108 -92 137 -53 27 -162 42 -174 23z"/>
<path d="M1293 1371 c-50 -35 -73 -58 -77 -78 -5 -18 -79 -100 -213 -235
l-207 -207 -28 15 c-39 20 -48 16 -67 -36 -17 -46 -62 -85 -110 -96 -33 -8
-261 -232 -261 -257 0 -46 61 -114 119 -132 21 -6 39 8 143 111 87 88 121 129
128 156 13 47 60 96 99 104 46 10 56 27 35 64 l-18 30 204 205 c118 119 216
208 230 212 35 8 44 17 94 89 l44 62 -22 21 -23 21 -70 -49z"/>
<path d="M950 875 l-54 -55 65 -68 c116 -119 127 -135 134 -199 14 -109 56
-154 162 -173 130 -23 145 4 35 65 -72 40 -73 40 -67 75 8 45 33 88 65 112
l26 19 72 -42 c40 -23 75 -39 79 -36 9 10 -18 68 -51 104 -38 44 -73 61 -156
77 -73 14 -113 41 -205 135 -21 23 -42 41 -45 41 -3 0 -30 -25 -60 -55z"/>
</g>
</svg>
